<svg width="20" height="13" viewBox="0 0 20 13" fill="none" xmlns="http://www.w3.org/2000/svg">
<path d="M18.9422 6.30299L12.9922 11.9274C12.9156 11.998 12.8156 12.0371 12.7119 12.0371C12.6082 12.0371 12.5082 11.998 12.4317 11.9274C12.3953 11.8937 12.3662 11.8527 12.3463 11.807C12.3264 11.7614 12.3161 11.7121 12.3161 11.6622C12.3161 11.6123 12.3264 11.563 12.3463 11.5173C12.3662 11.4717 12.3953 11.4307 12.4317 11.397L17.7046 6.41219H0.417441C0.366836 6.41508 0.316179 6.40752 0.268571 6.38998C0.220964 6.37244 0.177407 6.34529 0.140568 6.31018C0.10373 6.27507 0.0743836 6.23276 0.0543271 6.18582C0.0342707 6.13888 0.0239258 6.0883 0.0239258 6.03719C0.0239258 5.98608 0.0342707 5.9355 0.0543271 5.88856C0.0743836 5.84162 0.10373 5.79931 0.140568 5.7642C0.177407 5.7291 0.220964 5.70194 0.268571 5.6844C0.316179 5.66686 0.366836 5.6593 0.417441 5.66219H17.7069L12.4341 0.677391C12.3976 0.643669 12.3685 0.602683 12.3487 0.557031C12.3288 0.511379 12.3185 0.462057 12.3185 0.412191C12.3185 0.362325 12.3288 0.313003 12.3487 0.267351C12.3685 0.2217 12.3976 0.180713 12.4341 0.146991C12.5106 0.0764106 12.6106 0.0372715 12.7143 0.0372715C12.818 0.0372715 12.918 0.0764106 12.9946 0.146991L18.9445 5.77259C18.9808 5.80648 19.0097 5.8476 19.0294 5.89334C19.0491 5.93908 19.0592 5.98845 19.0589 6.03832C19.0587 6.08818 19.0482 6.13746 19.0281 6.18302C19.008 6.22858 18.9787 6.26943 18.9422 6.30299V6.30299Z" fill="url(#paint0_linear_292_9413)"/>
<defs>
<linearGradient id="paint0_linear_292_9413" x1="9.54143" y1="12.0371" x2="9.54143" y2="0.0372715" gradientUnits="userSpaceOnUse">
<stop stop-color="#64BB47"/>
<stop offset="1" stop-color="#2C9553"/>
</linearGradient>
</defs>
</svg>
