<svg width="21" height="14" viewBox="0 0 21 14" fill="none" xmlns="http://www.w3.org/2000/svg">
<path d="M20.1145 7.20775L14.1645 1.58335C14.088 1.51277 13.988 1.47363 13.8843 1.47363C13.7806 1.47363 13.6806 1.51277 13.604 1.58335C13.5676 1.61707 13.5385 1.65806 13.5186 1.70371C13.4987 1.74936 13.4885 1.79869 13.4885 1.84855C13.4885 1.89842 13.4987 1.94774 13.5186 1.99339C13.5385 2.03904 13.5676 2.08003 13.604 2.11375L18.8769 7.09855H1.5898C1.5392 7.09566 1.48854 7.10322 1.44093 7.12076C1.39333 7.1383 1.34977 7.16546 1.31293 7.20056C1.27609 7.23567 1.24675 7.27799 1.22669 7.32493C1.20663 7.37187 1.19629 7.42244 1.19629 7.47355C1.19629 7.52466 1.20663 7.57524 1.22669 7.62218C1.24675 7.66912 1.27609 7.71144 1.31293 7.74654C1.34977 7.78165 1.39333 7.8088 1.44093 7.82634C1.48854 7.84388 1.5392 7.85144 1.5898 7.84855H18.8793L13.6064 12.8334C13.57 12.8671 13.5409 12.9081 13.521 12.9537C13.5011 12.9994 13.4908 13.0487 13.4908 13.0986C13.4908 13.1484 13.5011 13.1977 13.521 13.2434C13.5409 13.289 13.57 13.33 13.6064 13.3638C13.683 13.4343 13.7829 13.4735 13.8867 13.4735C13.9904 13.4735 14.0904 13.4343 14.1669 13.3638L20.1169 7.73815C20.1532 7.70426 20.1821 7.66315 20.2018 7.6174C20.2215 7.57166 20.2315 7.52229 20.2313 7.47242C20.2311 7.42256 20.2206 7.37328 20.2005 7.32772C20.1804 7.28216 20.1511 7.24131 20.1145 7.20775V7.20775Z" stroke="url(#paint0_linear_292_78)" stroke-miterlimit="10"/>
<defs>
<linearGradient id="paint0_linear_292_78" x1="10.7138" y1="1.47363" x2="10.7138" y2="13.4735" gradientUnits="userSpaceOnUse">
<stop stop-color="#64BB47"/>
<stop offset="1" stop-color="#2C9553"/>
</linearGradient>
</defs>
</svg>
