<svg width="20" height="13" viewBox="0 0 20 13" fill="none" xmlns="http://www.w3.org/2000/svg">
<path d="M0.885468 6.20775L6.83547 0.583352C6.91202 0.512772 7.01199 0.473633 7.11571 0.473633C7.21944 0.473633 7.31941 0.512772 7.39596 0.583352C7.43239 0.617075 7.46147 0.658061 7.48136 0.703712C7.50126 0.749364 7.51153 0.798686 7.51153 0.848552C7.51153 0.898418 7.50126 0.94774 7.48136 0.993392C7.46147 1.03904 7.43239 1.08003 7.39596 1.11375L2.12307 6.09855H19.4102C19.4608 6.09566 19.5115 6.10322 19.5591 6.12076C19.6067 6.1383 19.6502 6.16546 19.6871 6.20056C19.7239 6.23567 19.7533 6.27799 19.7733 6.32493C19.7934 6.37187 19.8037 6.42244 19.8037 6.47355C19.8037 6.52466 19.7934 6.57524 19.7733 6.62218C19.7533 6.66912 19.7239 6.71144 19.6871 6.74654C19.6502 6.78165 19.6067 6.8088 19.5591 6.82634C19.5115 6.84388 19.4608 6.85144 19.4102 6.84855H2.12069L7.39358 11.8334C7.43001 11.8671 7.45909 11.9081 7.47898 11.9537C7.49888 11.9994 7.50915 12.0487 7.50915 12.0986C7.50915 12.1484 7.49888 12.1977 7.47898 12.2434C7.45909 12.289 7.43001 12.33 7.39358 12.3638C7.31703 12.4343 7.21706 12.4735 7.11333 12.4735C7.00961 12.4735 6.90964 12.4343 6.83309 12.3638L0.883087 6.73815C0.846809 6.70426 0.81791 6.66315 0.798219 6.6174C0.778528 6.57166 0.768475 6.52229 0.768699 6.47242C0.768922 6.42256 0.779418 6.37328 0.799518 6.32772C0.819619 6.28216 0.848888 6.24131 0.885468 6.20775V6.20775Z" fill="url(#paint0_linear_287_85)"/>
<defs>
<linearGradient id="paint0_linear_287_85" x1="10.2862" y1="0.473633" x2="10.2862" y2="12.4735" gradientUnits="userSpaceOnUse">
<stop stop-color="#64BB47"/>
<stop offset="1" stop-color="#2C9553"/>
</linearGradient>
</defs>
</svg>
