<svg width="116" height="122" viewBox="0 0 116 122" fill="none" xmlns="http://www.w3.org/2000/svg">
<path d="M104.561 22.3131H11.4377C5.12371 22.3205 0.00704452 27.654 0 34.2357V87.7341C0.00704452 94.3155 5.12371 99.6494 11.4377 99.6567H104.561C110.876 99.6496 115.993 94.316 116 87.7341V34.2357C115.993 27.654 110.876 22.3205 104.561 22.3131ZM78.1528 60.9849L111.135 32.0276C111.356 32.7409 111.469 33.486 111.468 34.2355V87.7339C111.469 88.4834 111.356 89.2284 111.135 89.9417L78.1528 60.9849ZM104.561 27.0365C105.928 27.035 107.265 27.4587 108.4 28.2535L57.9999 72.5036L7.6001 28.2535C8.73474 27.4587 10.0711 27.035 11.438 27.0367L104.561 27.0365ZM4.86518 89.9427C4.64375 89.2292 4.53127 88.4841 4.53151 87.7344V34.2357C4.53127 33.4862 4.64398 32.7409 4.86518 32.0276L37.8467 60.9849L4.86518 89.9427ZM11.4377 94.9336C10.0711 94.9356 8.73474 94.5121 7.6001 93.7178L41.3635 64.0739L56.5403 77.3984C57.3835 78.1388 58.616 78.1388 59.4593 77.3984L74.636 64.0737L108.399 93.7163C107.265 94.5111 105.928 94.9351 104.561 94.9333H11.4377V94.9336Z" fill="#37BB07"/>
</svg>
