<svg width="116" height="116" viewBox="0 0 116 116" fill="none" xmlns="http://www.w3.org/2000/svg">
<path d="M57.9995 4.98438C34.6002 4.98438 15.5508 24.9219 15.5508 49.5356C15.5508 73.6419 54.8277 108.949 56.4952 110.436C56.908 110.808 57.4439 111.013 57.9995 111.013C58.5552 111.013 59.0911 110.808 59.5039 110.436C61.1714 108.949 100.448 73.6419 100.448 49.5356C100.448 24.9762 81.3989 4.98438 57.9995 4.98438ZM57.9995 105.669C50.7495 98.9262 20.082 69.1106 20.082 49.4812C20.082 27.4775 37.1014 9.51562 57.9995 9.51562C78.8977 9.51562 95.917 27.4775 95.917 49.5356C95.917 69.1106 65.2495 98.9262 57.9995 105.669Z" fill="#37BB07"/>
<path d="M57.9998 28.3475C54.3034 28.3475 50.6899 29.4428 47.6154 31.4949C44.541 33.547 42.1435 36.4641 40.7257 39.8778C39.3078 43.2914 38.9332 47.0487 39.6491 50.6751C40.365 54.3015 42.1392 57.6345 44.7479 60.2533C47.3566 62.8721 50.6828 64.6593 54.3064 65.3892C57.93 66.1191 61.6887 65.759 65.1078 64.3544C68.5269 62.9498 71.4532 60.5636 73.5172 57.4971C75.5813 54.4307 76.6905 50.8214 76.7048 47.125C76.7119 44.6632 76.2335 42.2242 75.2969 39.9475C74.3604 37.6708 72.984 35.6011 71.2466 33.857C69.5092 32.1129 67.4449 30.7285 65.1718 29.7831C62.8988 28.8377 60.4616 28.3499 57.9998 28.3475ZM57.9998 61.2081C55.1926 61.2081 52.4487 60.3745 50.1159 58.813C47.7832 57.2515 45.9666 55.0325 44.8965 52.4373C43.8264 49.8421 43.5511 46.9876 44.1054 44.2357C44.6597 41.4838 46.0186 38.9585 48.0099 36.9799C50.0012 35.0014 52.5352 33.6586 55.2906 33.122C58.046 32.5854 60.8987 32.879 63.4869 33.9657C66.0752 35.0524 68.2825 36.8832 69.829 39.226C71.3755 41.5687 72.1915 44.3179 72.1735 47.125C72.1496 50.8684 70.6457 54.4503 67.9902 57.0888C65.3347 59.7274 61.7433 61.2082 57.9998 61.2081Z" fill="#37BB07"/>
</svg>
