<svg width="116" height="116" viewBox="0 0 116 116" fill="none" xmlns="http://www.w3.org/2000/svg">
<g clip-path="url(#clip0_307_9417)">
<rect width="116" height="116" fill="white"/>
<path d="M23.6369 77.109C35.0782 90.7857 48.8511 101.554 64.571 109.174C70.556 112.01 78.5602 115.375 87.4777 115.952C88.0305 115.976 88.5593 116 89.1122 116C95.0973 116 99.9046 113.933 103.823 109.678C103.847 109.654 103.895 109.606 103.919 109.558C105.313 107.876 106.899 106.361 108.558 104.751C109.687 103.669 110.841 102.54 111.947 101.386C117.067 96.0497 117.067 89.2714 111.899 84.1036L97.4528 69.6577C95.0011 67.1098 92.0687 65.7638 88.992 65.7638C85.9153 65.7638 82.9589 67.1098 80.435 69.6337L71.83 78.2387C71.0368 77.782 70.2195 77.3734 69.4504 76.9888C68.4889 76.5081 67.5995 76.0514 66.8063 75.5466C58.9705 70.5711 51.8557 64.0812 45.0533 55.7406C41.6161 51.39 39.3086 47.7364 37.6982 44.0108C39.9576 41.9677 42.0728 39.8284 44.1159 37.7373C44.837 36.9921 45.5821 36.247 46.3273 35.5019C48.9232 32.9059 50.3173 29.9014 50.3173 26.8487C50.3173 23.7961 48.9473 20.7915 46.3273 18.1956L39.1644 11.0327C38.3231 10.1915 37.5299 9.37422 36.7127 8.53295C35.1263 6.89847 33.4678 5.21591 31.8333 3.70162C29.3575 1.27393 26.4491 0 23.3725 0C20.3198 0 17.3874 1.27393 14.8155 3.72565L5.82583 12.7153C2.55687 15.9843 0.706063 19.9503 0.32148 24.5412C-0.135213 30.2859 0.922392 36.3912 3.66255 43.7704C7.86893 55.1877 14.2146 65.7878 23.6369 77.109ZM6.18638 25.046C6.47482 21.8491 7.70068 19.1811 10.0082 16.8736L18.9497 7.93203C20.3439 6.58599 21.8822 5.88893 23.3725 5.88893C24.8387 5.88893 26.3289 6.58599 27.699 7.98011C29.3095 9.47037 30.8238 11.0327 32.4582 12.6913C33.2755 13.5325 34.1168 14.3738 34.958 15.2391L42.1209 22.402C43.6112 23.8922 44.3803 25.4065 44.3803 26.8968C44.3803 28.3871 43.6112 29.9014 42.1209 31.3916C41.3758 32.1368 40.6306 32.9059 39.8855 33.6511C37.6501 35.9105 35.5589 38.0497 33.2514 40.0928C33.2034 40.1409 33.1793 40.1649 33.1313 40.213C31.1362 42.208 31.4487 44.1069 31.9294 45.5491C31.9535 45.6212 31.9775 45.6693 32.0015 45.7414C33.8524 50.1881 36.4243 54.4186 40.4383 59.4662C47.6493 68.3597 55.2448 75.2582 63.6095 80.5702C64.6431 81.2433 65.7487 81.7721 66.7823 82.3009C67.7438 82.7816 68.6331 83.2383 69.4263 83.7431C69.5225 83.7911 69.5946 83.8392 69.6907 83.8873C70.4839 84.2959 71.2531 84.4882 72.0223 84.4882C73.9452 84.4882 75.1951 83.2623 75.6037 82.8537L84.5933 73.8641C85.9874 72.4699 87.5017 71.7248 88.992 71.7248C90.8188 71.7248 92.309 72.8545 93.2465 73.8641L107.74 88.334C110.625 91.2184 110.601 94.3431 107.668 97.3958C106.659 98.4774 105.601 99.511 104.471 100.593C102.789 102.227 101.034 103.91 99.4479 105.809C96.6837 108.789 93.3907 110.183 89.1362 110.183C88.7276 110.183 88.2949 110.159 87.8863 110.135C80.0024 109.63 72.6712 106.554 67.1669 103.934C52.2162 96.6987 39.0923 86.4351 28.2038 73.4074C19.2382 62.615 13.205 52.5678 9.21497 41.7994C6.73922 35.1894 5.80179 29.8773 6.18638 25.046Z" fill="#37BB07"/>
</g>
<defs>
<clipPath id="clip0_307_9417">
<rect width="116" height="116" fill="white"/>
</clipPath>
</defs>
</svg>
