<svg width="49" height="49" viewBox="0 0 49 49" fill="none" xmlns="http://www.w3.org/2000/svg">
<path d="M24.5 45.9375C36.3396 45.9375 45.9375 36.3396 45.9375 24.5C45.9375 12.6604 36.3396 3.0625 24.5 3.0625C12.6604 3.0625 3.0625 12.6604 3.0625 24.5C3.0625 36.3396 12.6604 45.9375 24.5 45.9375Z" fill="url(#paint0_linear_58_374)"/>
<path d="M32.4835 31.0562L33.4358 25.0055H27.4786V21.0807C27.4786 19.425 28.3093 17.8101 30.9775 17.8101H33.6875V12.6588C33.6875 12.6588 31.2291 12.25 28.8798 12.25C23.9714 12.25 20.7664 15.1486 20.7664 20.3938V25.0055H15.3125V31.0562H20.7664V45.6841C21.8612 45.8517 22.9813 45.9375 24.1224 45.9375C25.2635 45.9375 26.3837 45.8517 27.4786 45.6841V31.0562H32.4835Z" fill="white"/>
<defs>
<linearGradient id="paint0_linear_58_374" x1="24.5" y1="3.0625" x2="24.5" y2="45.8104" gradientUnits="userSpaceOnUse">
<stop stop-color="#18ACFE"/>
<stop offset="1" stop-color="#0163E0"/>
</linearGradient>
</defs>
</svg>
