<svg width="49" height="49" viewBox="0 0 49 49" fill="none" xmlns="http://www.w3.org/2000/svg">
<path d="M36.75 3.0625H12.25C7.17588 3.0625 3.0625 7.17588 3.0625 12.25V36.75C3.0625 41.8241 7.17588 45.9375 12.25 45.9375H36.75C41.8241 45.9375 45.9375 41.8241 45.9375 36.75V12.25C45.9375 7.17588 41.8241 3.0625 36.75 3.0625Z" fill="url(#paint0_radial_57_355)"/>
<path d="M36.75 3.0625H12.25C7.17588 3.0625 3.0625 7.17588 3.0625 12.25V36.75C3.0625 41.8241 7.17588 45.9375 12.25 45.9375H36.75C41.8241 45.9375 45.9375 41.8241 45.9375 36.75V12.25C45.9375 7.17588 41.8241 3.0625 36.75 3.0625Z" fill="url(#paint1_radial_57_355)"/>
<path d="M36.75 3.0625H12.25C7.17588 3.0625 3.0625 7.17588 3.0625 12.25V36.75C3.0625 41.8241 7.17588 45.9375 12.25 45.9375H36.75C41.8241 45.9375 45.9375 41.8241 45.9375 36.75V12.25C45.9375 7.17588 41.8241 3.0625 36.75 3.0625Z" fill="url(#paint2_radial_57_355)"/>
<path d="M35.2188 16.0781C35.2188 17.3466 34.1904 18.375 32.9219 18.375C31.6534 18.375 30.625 17.3466 30.625 16.0781C30.625 14.8096 31.6534 13.7812 32.9219 13.7812C34.1904 13.7812 35.2188 14.8096 35.2188 16.0781Z" fill="white"/>
<path fill-rule="evenodd" clip-rule="evenodd" d="M24.5 32.1562C28.7284 32.1562 32.1562 28.7284 32.1562 24.5C32.1562 20.2716 28.7284 16.8438 24.5 16.8438C20.2716 16.8438 16.8438 20.2716 16.8438 24.5C16.8438 28.7284 20.2716 32.1562 24.5 32.1562ZM24.5 29.0938C27.0371 29.0938 29.0938 27.0371 29.0938 24.5C29.0938 21.9629 27.0371 19.9062 24.5 19.9062C21.9629 19.9062 19.9062 21.9629 19.9062 24.5C19.9062 27.0371 21.9629 29.0938 24.5 29.0938Z" fill="white"/>
<path fill-rule="evenodd" clip-rule="evenodd" d="M9.1875 23.8875C9.1875 18.742 9.1875 16.1692 10.1889 14.204C11.0697 12.4752 12.4752 11.0697 14.204 10.1889C16.1692 9.1875 18.742 9.1875 23.8875 9.1875H25.1125C30.258 9.1875 32.8308 9.1875 34.796 10.1889C36.5248 11.0697 37.9303 12.4752 38.8111 14.204C39.8125 16.1692 39.8125 18.742 39.8125 23.8875V25.1125C39.8125 30.258 39.8125 32.8308 38.8111 34.796C37.9303 36.5248 36.5248 37.9303 34.796 38.8111C32.8308 39.8125 30.258 39.8125 25.1125 39.8125H23.8875C18.742 39.8125 16.1692 39.8125 14.204 38.8111C12.4752 37.9303 11.0697 36.5248 10.1889 34.796C9.1875 32.8308 9.1875 30.258 9.1875 25.1125V23.8875ZM23.8875 12.25H25.1125C27.7358 12.25 29.519 12.2524 30.8974 12.365C32.2402 12.4747 32.9268 12.6735 33.4058 12.9176C34.5582 13.5048 35.4951 14.4418 36.0824 15.5943C36.3265 16.0732 36.5254 16.7598 36.635 18.1026C36.7476 19.481 36.75 21.2642 36.75 23.8875V25.1125C36.75 27.7358 36.7476 29.519 36.635 30.8974C36.5254 32.2402 36.3265 32.9268 36.0824 33.4058C35.4951 34.5582 34.5582 35.4951 33.4058 36.0824C32.9268 36.3265 32.2402 36.5254 30.8974 36.635C29.519 36.7476 27.7358 36.75 25.1125 36.75H23.8875C21.2642 36.75 19.481 36.7476 18.1026 36.635C16.7598 36.5254 16.0732 36.3265 15.5943 36.0824C14.4418 35.4951 13.5048 34.5582 12.9176 33.4058C12.6735 32.9268 12.4747 32.2402 12.365 30.8974C12.2524 29.519 12.25 27.7358 12.25 25.1125V23.8875C12.25 21.2642 12.2524 19.481 12.365 18.1026C12.4747 16.7598 12.6735 16.0732 12.9176 15.5943C13.5048 14.4418 14.4418 13.5048 15.5943 12.9176C16.0732 12.6735 16.7598 12.4747 18.1026 12.365C19.481 12.2524 21.2642 12.25 23.8875 12.25Z" fill="white"/>
<defs>
<radialGradient id="paint0_radial_57_355" cx="0" cy="0" r="1" gradientUnits="userSpaceOnUse" gradientTransform="translate(18.375 35.2188) rotate(-55.3758) scale(39.0769)">
<stop stop-color="#B13589"/>
<stop offset="0.79309" stop-color="#C62F94"/>
<stop offset="1" stop-color="#8A3AC8"/>
</radialGradient>
<radialGradient id="paint1_radial_57_355" cx="0" cy="0" r="1" gradientUnits="userSpaceOnUse" gradientTransform="translate(16.8438 47.4688) rotate(-65.1363) scale(34.5974)">
<stop stop-color="#E0E8B7"/>
<stop offset="0.444662" stop-color="#FB8A2E"/>
<stop offset="0.71474" stop-color="#E2425C"/>
<stop offset="1" stop-color="#E2425C" stop-opacity="0"/>
</radialGradient>
<radialGradient id="paint2_radial_57_355" cx="0" cy="0" r="1" gradientUnits="userSpaceOnUse" gradientTransform="translate(0.765626 4.59375) rotate(-8.1301) scale(59.5517 12.7375)">
<stop offset="0.156701" stop-color="#406ADC"/>
<stop offset="0.467799" stop-color="#6A45BE"/>
<stop offset="1" stop-color="#6A45BE" stop-opacity="0"/>
</radialGradient>
</defs>
</svg>
