<svg width="49" height="49" viewBox="0 0 49 49" fill="none" xmlns="http://www.w3.org/2000/svg">
<g clip-path="url(#clip0_58_371)">
<path d="M24.5 49C38.031 49 49 38.031 49 24.5C49 10.969 38.031 0 24.5 0C10.969 0 0 10.969 0 24.5C0 38.031 10.969 49 24.5 49Z" fill="#0A66C2"/>
<path d="M33.1659 33.1707H29.5292V27.4764C29.5292 26.1174 29.5005 24.3708 27.6343 24.3708C25.7394 24.3708 25.4475 25.8494 25.4475 27.3759V33.1707H21.8107V21.4566H25.3039V23.0549H25.3518C25.8398 22.1361 27.0266 21.1647 28.7971 21.1647C32.4816 21.1647 33.1611 23.5908 33.1611 26.7442L33.1659 33.1707ZM17.7099 19.8536C16.5375 19.8536 15.5996 18.9062 15.5996 17.7434C15.5996 16.5806 16.5423 15.6331 17.7099 15.6331C18.8774 15.6331 19.8201 16.5806 19.8201 17.7434C19.8201 18.9062 18.8727 19.8536 17.7099 19.8536ZM19.533 33.1707H15.8867V21.4566H19.533V33.1707ZM34.9843 12.25H14.0636C13.0635 12.25 12.25 13.0396 12.25 14.0205V35.0273C12.25 36.0035 13.0587 36.7979 14.0636 36.7979H34.9795C35.9796 36.7979 36.7979 36.0083 36.7979 35.0273V14.0205C36.7979 13.0396 35.9796 12.25 34.9843 12.25Z" fill="white"/>
</g>
<defs>
<clipPath id="clip0_58_371">
<rect width="49" height="49" fill="white"/>
</clipPath>
</defs>
</svg>
