<svg width="117" height="35" viewBox="0 0 117 35" fill="none" xmlns="http://www.w3.org/2000/svg">
<g clip-path="url(#clip0_55_311)">
<path fill-rule="evenodd" clip-rule="evenodd" d="M84.3879 15.8123V35.0001H94.4741V23.6295H105.905C110.716 23.5918 114.803 20.3437 116.344 15.8123H84.3879Z" fill="#37A72E"/>
<path fill-rule="evenodd" clip-rule="evenodd" d="M83.0431 0C83.6306 7.84292 90.6511 14.0355 99.2253 14.0355C99.2533 14.0355 116.763 14.0355 116.763 14.0355C116.892 13.3162 116.96 12.5738 116.96 11.8147C116.96 5.31784 112.001 0.0480627 105.865 0.000326892L83.0431 0Z" fill="url(#paint0_linear_55_311)"/>
<path fill-rule="evenodd" clip-rule="evenodd" d="M68.1155 13.8489L68.1234 13.831L68.1245 13.8313C68.2279 13.6352 68.426 13.5025 68.6535 13.5025C68.9821 13.5025 69.2495 13.7793 69.2584 14.1243L69.2587 14.1244V34.8223H79.3449V0H69.2587C67.9796 0.0449939 66.5345 1.03696 65.9973 2.25462L57.9706 20.447C57.9508 20.5213 57.9198 20.5907 57.8797 20.6531L57.877 20.6591L57.8759 20.6588C57.7545 20.8435 57.5523 20.9645 57.3233 20.9645C56.952 20.9645 56.6509 20.6463 56.6509 20.2538V0H46.5647V34.8223H56.6509V34.8184C57.9159 34.7485 59.3271 33.7677 59.8566 32.5677L68.0948 13.8958C68.1011 13.8798 68.108 13.8642 68.1155 13.8489Z" fill="#37A72E"/>
<path fill-rule="evenodd" clip-rule="evenodd" d="M30.4525 14.4441L24.5575 34.8223H17.3017L11.4032 14.4318C11.3463 14.1053 11.0756 13.8579 10.7502 13.8579C10.3835 13.8579 10.0862 14.1721 10.0862 14.5596C10.0862 14.5626 10.0862 14.5656 10.0863 14.5685L10.0862 34.8223H0V0H8.65733H11.2357C13.0915 0 15.0364 1.5222 15.5787 3.397L20.4874 20.3659C20.7317 21.2101 21.1279 21.2092 21.3719 20.3659L26.2806 3.397C26.8233 1.52089 28.7675 0 30.6236 0L33.2012 0H41.8578V34.8223H31.7716V14.5685C31.7715 14.5656 31.7716 14.5626 31.7716 14.5596C31.7716 14.1721 31.4743 13.8579 31.1075 13.8579C30.778 13.8579 30.5046 14.1115 30.4525 14.4441Z" fill="#37A72E"/>
</g>
<defs>
<linearGradient id="paint0_linear_55_311" x1="83.0431" y1="701.777" x2="3474.75" y2="701.777" gradientUnits="userSpaceOnUse">
<stop stop-color="#00A0E5"/>
<stop offset="1" stop-color="#0077C3"/>
</linearGradient>
<clipPath id="clip0_55_311">
<rect width="117" height="35" fill="white"/>
</clipPath>
</defs>
</svg>
