<svg width="49" height="49" viewBox="0 0 49 49" fill="none" xmlns="http://www.w3.org/2000/svg">
<path d="M24.5 45.9375C36.3396 45.9375 45.9375 36.3396 45.9375 24.5C45.9375 12.6604 36.3396 3.0625 24.5 3.0625C12.6604 3.0625 3.0625 12.6604 3.0625 24.5C3.0625 36.3396 12.6604 45.9375 24.5 45.9375Z" fill="url(#paint0_linear_59_384)"/>
<path d="M35.1982 15.6322C35.389 14.3988 34.2164 13.4253 33.1197 13.9068L11.2774 23.4967C10.4909 23.842 10.5485 25.0333 11.3641 25.293L15.8685 26.7275C16.7283 27.0013 17.6591 26.8597 18.4099 26.341L28.5655 19.3248C28.8717 19.1132 29.2055 19.5487 28.9438 19.8184L21.6336 27.3552C20.9245 28.0863 21.0652 29.3253 21.9183 29.8601L30.1028 34.9926C31.0208 35.5682 32.2017 34.99 32.3734 33.8806L35.1982 15.6322Z" fill="white"/>
<defs>
<linearGradient id="paint0_linear_59_384" x1="24.5" y1="3.0625" x2="24.5" y2="45.9375" gradientUnits="userSpaceOnUse">
<stop stop-color="#37BBFE"/>
<stop offset="1" stop-color="#007DBB"/>
</linearGradient>
</defs>
</svg>
