<svg width="49" height="49" viewBox="0 0 49 49" fill="none" xmlns="http://www.w3.org/2000/svg">
<g clip-path="url(#clip0_57_351)">
<path fill-rule="evenodd" clip-rule="evenodd" d="M49 8.91719C47.1996 9.73711 45.2611 10.2916 43.2277 10.5393C45.3042 9.26521 46.8976 7.24493 47.6482 4.83828C45.704 6.01801 43.5556 6.87625 41.2604 7.33635C39.4313 5.33376 36.8169 4.08325 33.9235 4.08325C28.3755 4.08325 23.8744 8.69893 23.8744 14.3911C23.8744 15.1992 23.9607 15.9838 24.1333 16.7388C15.7782 16.3082 8.37231 12.2086 3.41104 5.96491C2.54534 7.49266 2.05064 9.26521 2.05064 11.1528C2.05064 14.7274 3.82521 17.8831 6.52298 19.7323C4.87786 19.6822 3.32476 19.2133 1.96724 18.4464V18.5733C1.96724 23.5694 5.43294 27.7368 10.0347 28.6806C9.19199 28.9224 8.30328 29.0433 7.38581 29.0433C6.73869 29.0433 6.10594 28.9814 5.49333 28.8605C6.7732 32.9541 10.4833 35.9359 14.8838 36.0155C11.444 38.782 7.10682 40.4307 2.39865 40.4307C1.58759 40.4307 0.785173 40.3835 0 40.2891C4.44932 43.2089 9.73557 44.9166 15.4101 44.9166C33.9034 44.9166 44.0128 29.2115 44.0128 15.5885C44.0128 15.1402 44.0042 14.692 43.987 14.2525C45.9513 12.7985 47.6569 10.9847 49 8.91719Z" fill="#00AAEC"/>
</g>
<defs>
<clipPath id="clip0_57_351">
<rect width="49" height="49" fill="white"/>
</clipPath>
</defs>
</svg>
