<svg width="49" height="49" viewBox="0 0 49 49" fill="none" xmlns="http://www.w3.org/2000/svg">
<path d="M45.0555 14.1886C44.8102 13.2837 44.3323 12.4587 43.6693 11.7957C43.0063 11.1327 42.1813 10.6548 41.2764 10.4095C37.9199 9.52441 24.5 9.52441 24.5 9.52441C24.5 9.52441 11.0801 9.52441 7.72363 10.4095C5.88613 10.9025 4.44062 12.3511 3.9445 14.1886C3.0625 17.542 3.0625 24.5 3.0625 24.5C3.0625 24.5 3.0625 31.4917 3.9445 34.8115C4.44062 36.649 5.88919 38.0975 7.72363 38.5906C11.0801 39.4757 24.5 39.4757 24.5 39.4757C24.5 39.4757 37.9199 39.4757 41.2764 38.5906C42.1813 38.3453 43.0063 37.8674 43.6693 37.2044C44.3323 36.5414 44.8102 35.7164 45.0555 34.8115C45.9375 31.458 45.9375 24.5 45.9375 24.5C45.9375 24.5 45.9375 17.542 45.0555 14.1886Z" fill="#FF0000"/>
<path d="M20.191 30.962L31.3508 24.5368L20.191 18.075V30.962Z" fill="white"/>
</svg>
