<svg width="32" height="39" viewBox="0 0 32 39" fill="none" xmlns="http://www.w3.org/2000/svg">
<path d="M4.42358 12.3841C4.42358 19.1954 9.74414 24.7682 16.247 24.7682C22.75 24.7682 28.0705 19.1954 28.0705 12.3841C28.0705 5.57285 22.75 0 16.247 0C9.74414 0 4.42358 5.57285 4.42358 12.3841ZM25.2885 12.3841C25.2885 17.5927 21.2199 21.8543 16.247 21.8543C11.2742 21.8543 7.20558 17.5927 7.20558 12.3841C7.20558 7.1755 11.2742 2.91391 16.247 2.91391C21.2199 2.91391 25.2885 7.1755 25.2885 12.3841Z" fill="url(#paint0_linear_231_9487)"/>
<path d="M2.47607 38.0266C6.1622 34.1657 11.0307 32.0531 16.2469 32.0531C21.4632 32.0531 26.3316 34.1657 30.0178 38.0266L32 35.9504C27.7922 31.5796 22.1934 29.1392 16.2469 29.1392C10.3004 29.1392 4.70166 31.5796 0.493896 35.9504L2.47607 38.0266Z" fill="url(#paint1_linear_231_9487)"/>
<defs>
<linearGradient id="paint0_linear_231_9487" x1="16.247" y1="0" x2="16.247" y2="24.7682" gradientUnits="userSpaceOnUse">
<stop stop-color="#64BB47"/>
<stop offset="1" stop-color="#2C9553"/>
</linearGradient>
<linearGradient id="paint1_linear_231_9487" x1="16.2469" y1="29.1392" x2="16.2469" y2="38.0266" gradientUnits="userSpaceOnUse">
<stop stop-color="#64BB47"/>
<stop offset="1" stop-color="#2C9553"/>
</linearGradient>
</defs>
</svg>
