<svg width="38" height="38" viewBox="0 0 38 38" fill="none" xmlns="http://www.w3.org/2000/svg">
<path d="M36.3636 11.4024H9.75532L7.60714 2.53888H1.63757V3.80475H6.61082L12.7834 29.2683C11.4677 29.6519 10.4999 30.8524 10.4999 32.2929C10.4999 34.0409 11.9166 35.4588 13.6658 35.4588C15.4149 35.4588 16.8316 34.0409 16.8316 32.2929C16.8316 31.5768 16.5846 30.9237 16.1844 30.3941H25.0753C24.6751 30.9237 24.4281 31.578 24.4281 32.2929C24.4281 34.0409 25.8448 35.4588 27.5928 35.4588C29.3408 35.4588 30.7586 34.0409 30.7586 32.2929C30.7586 30.5437 29.3419 29.1282 27.5928 29.127H14.0517L13.4378 26.5941H31.2123L36.3624 11.4L36.3636 11.4024ZM15.5646 32.2953C15.5646 33.3426 14.7131 34.1941 13.6658 34.1941C12.6184 34.1941 11.7669 33.3426 11.7669 32.2953C11.7669 31.2479 12.6184 30.3964 13.6658 30.3964C14.7131 30.3964 15.5646 31.2491 15.5646 32.2953ZM29.4928 32.2953C29.4928 33.3426 28.6401 34.1941 27.5928 34.1941C26.5454 34.1941 25.6939 33.3426 25.6939 32.2953C25.6939 31.2479 26.5454 30.3964 27.5928 30.3964C28.6401 30.3964 29.4928 31.2491 29.4928 32.2953ZM13.1314 25.3306L10.0617 12.6694H34.5978L30.305 25.3306H13.1314Z" fill="url(#paint0_linear_6_56)"/>
<defs>
<linearGradient id="paint0_linear_6_56" x1="19.0006" y1="2.53888" x2="19.0006" y2="35.4588" gradientUnits="userSpaceOnUse">
<stop stop-color="#64BB47"/>
<stop offset="1" stop-color="#2C9553"/>
</linearGradient>
</defs>
</svg>
