<svg width="213" height="116" viewBox="0 0 213 116" fill="none" xmlns="http://www.w3.org/2000/svg">
<path d="M7.94 78.32C6.95333 78.32 6.09333 78.5 5.36 78.86C4.64 79.2067 4.04 79.6667 3.56 80.24C3.08 80.8 2.72 81.4333 2.48 82.14C2.25333 82.8467 2.14 83.5467 2.14 84.24C2.14 85.0267 2.29333 85.8 2.6 86.56C2.90667 87.3067 3.32667 87.9733 3.86 88.56C4.40667 89.1333 5.04 89.6 5.76 89.96C6.48 90.3067 7.26 90.48 8.1 90.48C8.34 90.48 8.62 90.4533 8.94 90.4C9.27333 90.3467 9.6 90.2467 9.92 90.1C10.24 89.94 10.5333 89.72 10.8 89.44C11.08 89.16 11.2933 88.7933 11.44 88.34H11.64V90.56C11.44 90.56 11.2267 90.5867 11 90.64C10.7867 90.6933 10.5467 90.7533 10.28 90.82C9.93333 90.9133 9.54667 91 9.12 91.08C8.70667 91.16 8.26667 91.2 7.8 91.2C6.64 91.2 5.62 91 4.74 90.6C3.86 90.2 3.12667 89.68 2.54 89.04C1.95333 88.4 1.51333 87.68 1.22 86.88C0.926667 86.0667 0.78 85.2467 0.78 84.42C0.78 83.5933 0.926667 82.7733 1.22 81.96C1.51333 81.1467 1.96 80.42 2.56 79.78C3.16 79.1267 3.91333 78.6 4.82 78.2C5.72667 77.8 6.79333 77.6 8.02 77.6C8.46 77.6 8.85333 77.64 9.2 77.72C9.56 77.8 9.88 77.88 10.16 77.96C10.36 78.0267 10.54 78.08 10.7 78.12C10.8733 78.1467 11.04 78.16 11.2 78.16V80.38H11C10.92 79.9667 10.7733 79.6267 10.56 79.36C10.3467 79.08 10.0933 78.8667 9.8 78.72C9.52 78.5733 9.21333 78.4733 8.88 78.42C8.56 78.3533 8.24667 78.32 7.94 78.32ZM23.6409 84.6C23.6409 84.8267 23.5943 85.04 23.5009 85.24C23.4076 85.44 23.2876 85.6267 23.1409 85.8C23.0076 85.96 22.8476 86.1067 22.6609 86.24C22.4743 86.36 22.2943 86.4533 22.1209 86.52C22.3476 86.56 22.5809 86.6333 22.8209 86.74C23.0743 86.8467 23.3009 86.9867 23.5009 87.16C23.7143 87.3333 23.8876 87.5533 24.0209 87.82C24.1543 88.0733 24.2209 88.38 24.2209 88.74C24.2209 88.9267 24.1743 89.1533 24.0809 89.42C24.0009 89.6733 23.8476 89.92 23.6209 90.16C23.4076 90.3867 23.1076 90.5867 22.7209 90.76C22.3476 90.92 21.8609 91 21.2609 91H16.8609V90.8C16.9676 90.8 17.0609 90.76 17.1409 90.68C17.2209 90.6 17.2876 90.5067 17.3409 90.4C17.4076 90.2933 17.4543 90.18 17.4809 90.06C17.5076 89.9267 17.5209 89.8067 17.5209 89.7V83.86C17.5209 83.6467 17.4609 83.42 17.3409 83.18C17.2343 82.9267 17.0743 82.8 16.8609 82.8V82.6H20.9409C21.4209 82.6 21.8276 82.6667 22.1609 82.8C22.5076 82.92 22.7876 83.08 23.0009 83.28C23.2276 83.4667 23.3876 83.68 23.4809 83.92C23.5876 84.1467 23.6409 84.3733 23.6409 84.6ZM18.8209 86.26H20.3609C20.7476 86.26 21.0676 86.22 21.3209 86.14C21.5876 86.0467 21.8009 85.9267 21.9609 85.78C22.1209 85.6333 22.2343 85.4667 22.3009 85.28C22.3809 85.0933 22.4209 84.9 22.4209 84.7C22.4209 84.54 22.3743 84.3733 22.2809 84.2C22.1876 84.0267 22.0476 83.8733 21.8609 83.74C21.6876 83.5933 21.4743 83.4733 21.2209 83.38C20.9676 83.2867 20.6809 83.24 20.3609 83.24H18.8209V86.26ZM20.7809 90.36C20.9409 90.36 21.1409 90.3467 21.3809 90.32C21.6343 90.28 21.8743 90.2067 22.1009 90.1C22.3409 89.98 22.5409 89.8133 22.7009 89.6C22.8743 89.3733 22.9609 89.08 22.9609 88.72C22.9609 88.3333 22.8476 88.02 22.6209 87.78C22.3943 87.54 22.1276 87.36 21.8209 87.24C21.5276 87.1067 21.2209 87.02 20.9009 86.98C20.5809 86.94 20.3343 86.92 20.1609 86.92H18.8209V90.36H20.7809ZM30.5625 86.96C30.6158 87.4267 30.7292 87.8733 30.9025 88.3C31.0758 88.7133 31.3025 89.08 31.5825 89.4C31.8758 89.72 32.2292 89.98 32.6425 90.18C33.0558 90.3667 33.5358 90.46 34.0825 90.46C34.3758 90.46 34.6825 90.42 35.0025 90.34C35.3358 90.2467 35.6425 90.12 35.9225 89.96C36.2025 89.8 36.4492 89.6067 36.6625 89.38C36.8892 89.14 37.0425 88.8733 37.1225 88.58H37.3025V90.08C37.2225 90.08 37.1292 90.1067 37.0225 90.16C36.9292 90.2133 36.8158 90.28 36.6825 90.36C36.4158 90.52 36.0558 90.6933 35.6025 90.88C35.1492 91.0533 34.5492 91.14 33.8025 91.14C33.2025 91.14 32.6292 91.0533 32.0825 90.88C31.5492 90.7067 31.0758 90.44 30.6625 90.08C30.2492 89.72 29.9158 89.26 29.6625 88.7C29.4225 88.14 29.3025 87.4733 29.3025 86.7C29.3025 86.2067 29.3825 85.7067 29.5425 85.2C29.7158 84.6933 29.9692 84.24 30.3025 83.84C30.6492 83.4267 31.0892 83.0933 31.6225 82.84C32.1558 82.5867 32.7958 82.46 33.5425 82.46C34.2092 82.46 34.7892 82.5733 35.2825 82.8C35.7892 83.0267 36.2025 83.34 36.5225 83.74C36.8558 84.14 37.1025 84.6133 37.2625 85.16C37.4225 85.7067 37.5025 86.3067 37.5025 86.96H30.5625ZM33.4625 83.12C32.9958 83.12 32.5892 83.2133 32.2425 83.4C31.9092 83.5867 31.6225 83.8267 31.3825 84.12C31.1425 84.4133 30.9558 84.7467 30.8225 85.12C30.6892 85.4933 30.6025 85.8667 30.5625 86.24H36.2625C36.2492 85.8533 36.1758 85.4733 36.0425 85.1C35.9225 84.7267 35.7492 84.3933 35.5225 84.1C35.2958 83.8067 35.0092 83.5733 34.6625 83.4C34.3158 83.2133 33.9158 83.12 33.4625 83.12ZM52.2695 89.42C52.3495 89.58 52.4495 89.74 52.5695 89.9C52.7029 90.06 52.8429 90.2067 52.9895 90.34C53.1362 90.46 53.2895 90.5667 53.4495 90.66C53.6229 90.74 53.7829 90.7867 53.9295 90.8V91H53.2295C52.6695 91 52.2295 90.8867 51.9095 90.66C51.6029 90.42 51.3562 90.12 51.1695 89.76L50.2095 87.88C50.0895 87.5733 49.8762 87.3067 49.5695 87.08C49.2629 86.8533 48.9429 86.7267 48.6095 86.7V89.68C48.6095 89.7733 48.6229 89.8867 48.6495 90.02C48.6762 90.14 48.7162 90.26 48.7695 90.38C48.8362 90.4867 48.9095 90.58 48.9895 90.66C49.0695 90.74 49.1629 90.7867 49.2695 90.8V91H46.7095V90.8C46.8162 90.7867 46.9095 90.74 46.9895 90.66C47.0695 90.58 47.1362 90.4867 47.1895 90.38C47.2562 90.26 47.3029 90.14 47.3295 90.02C47.3562 89.9 47.3695 89.7867 47.3695 89.68V86.7C47.0229 86.7267 46.7029 86.8533 46.4095 87.08C46.1295 87.3067 45.9162 87.5733 45.7695 87.88L44.8295 89.76C44.6562 90.1067 44.4029 90.4 44.0695 90.64C43.7495 90.88 43.3095 91 42.7495 91H42.0495V90.8C42.1962 90.7867 42.3495 90.74 42.5095 90.66C42.6695 90.5667 42.8229 90.46 42.9695 90.34C43.1295 90.2067 43.2695 90.06 43.3895 89.9C43.5229 89.74 43.6295 89.58 43.7095 89.42L44.6495 87.48C44.8095 87.1733 45.0762 86.9067 45.4495 86.68C45.8362 86.44 46.2762 86.3067 46.7695 86.28C46.2629 85.8 45.7229 85.2867 45.1495 84.74C44.5762 84.1933 44.0295 83.68 43.5095 83.2C43.4695 83.1733 43.3629 83.1067 43.1895 83C43.0295 82.88 42.8829 82.8133 42.7495 82.8V82.6H44.2895V82.82C44.2495 82.8467 44.2295 82.8667 44.2295 82.88C44.2295 82.9467 44.2495 83.0067 44.2895 83.06L47.3695 85.92V83.86C47.3695 83.6733 47.3095 83.46 47.1895 83.22C47.0829 82.9667 46.9229 82.8267 46.7095 82.8V82.6H49.2695V82.8C49.1629 82.8133 49.0695 82.86 48.9895 82.94C48.9095 83.0067 48.8429 83.0933 48.7895 83.2C48.7362 83.3067 48.6895 83.42 48.6495 83.54C48.6229 83.66 48.6095 83.7667 48.6095 83.86V85.92L51.7095 83.02C51.7362 82.9933 51.7495 82.9467 51.7495 82.88C51.7495 82.8667 51.7295 82.8467 51.6895 82.82V82.6H53.2295V82.8C53.1629 82.8 53.0829 82.82 52.9895 82.86C52.9095 82.9 52.8295 82.9467 52.7495 83C52.6562 83.0533 52.5629 83.12 52.4695 83.2L49.2095 86.28C49.7429 86.2933 50.1895 86.4133 50.5495 86.64C50.9095 86.8533 51.1695 87.1333 51.3295 87.48L52.2695 89.42ZM58.9492 86.96C59.0026 87.4267 59.1159 87.8733 59.2892 88.3C59.4626 88.7133 59.6892 89.08 59.9692 89.4C60.2626 89.72 60.6159 89.98 61.0292 90.18C61.4426 90.3667 61.9226 90.46 62.4692 90.46C62.7626 90.46 63.0692 90.42 63.3892 90.34C63.7226 90.2467 64.0292 90.12 64.3092 89.96C64.5892 89.8 64.8359 89.6067 65.0492 89.38C65.2759 89.14 65.4292 88.8733 65.5092 88.58H65.6892V90.08C65.6092 90.08 65.5159 90.1067 65.4092 90.16C65.3159 90.2133 65.2026 90.28 65.0692 90.36C64.8026 90.52 64.4426 90.6933 63.9892 90.88C63.5359 91.0533 62.9359 91.14 62.1892 91.14C61.5892 91.14 61.0159 91.0533 60.4692 90.88C59.9359 90.7067 59.4626 90.44 59.0492 90.08C58.6359 89.72 58.3026 89.26 58.0492 88.7C57.8092 88.14 57.6892 87.4733 57.6892 86.7C57.6892 86.2067 57.7692 85.7067 57.9292 85.2C58.1026 84.6933 58.3559 84.24 58.6892 83.84C59.0359 83.4267 59.4759 83.0933 60.0092 82.84C60.5426 82.5867 61.1826 82.46 61.9292 82.46C62.5959 82.46 63.1759 82.5733 63.6692 82.8C64.1759 83.0267 64.5892 83.34 64.9092 83.74C65.2426 84.14 65.4892 84.6133 65.6492 85.16C65.8092 85.7067 65.8892 86.3067 65.8892 86.96H58.9492ZM61.8492 83.12C61.3826 83.12 60.9759 83.2133 60.6292 83.4C60.2959 83.5867 60.0092 83.8267 59.7692 84.12C59.5292 84.4133 59.3426 84.7467 59.2092 85.12C59.0759 85.4933 58.9892 85.8667 58.9492 86.24H64.6492C64.6359 85.8533 64.5626 85.4733 64.4292 85.1C64.3092 84.7267 64.1359 84.3933 63.9092 84.1C63.6826 83.8067 63.3959 83.5733 63.0492 83.4C62.7026 83.2133 62.3026 83.12 61.8492 83.12ZM73.0163 89.7C73.0163 89.8067 73.0296 89.9267 73.0563 90.06C73.0829 90.18 73.1229 90.2933 73.1763 90.4C73.2296 90.5067 73.2896 90.6 73.3563 90.68C73.4363 90.76 73.5229 90.8 73.6163 90.8V91H71.0963V90.8C71.1896 90.8 71.2696 90.7667 71.3363 90.7C71.4163 90.62 71.4829 90.5267 71.5363 90.42C71.5896 90.3 71.6296 90.18 71.6563 90.06C71.6829 89.9267 71.6963 89.8067 71.6963 89.7V83.84C71.6963 83.7467 71.6829 83.64 71.6563 83.52C71.6296 83.4 71.5896 83.2867 71.5363 83.18C71.4829 83.0733 71.4163 82.9867 71.3363 82.92C71.2696 82.84 71.1896 82.8 71.0963 82.8V82.6H73.6163V82.8C73.5096 82.8 73.4163 82.84 73.3363 82.92C73.2696 82.9867 73.2096 83.0733 73.1563 83.18C73.1163 83.2867 73.0829 83.4 73.0563 83.52C73.0296 83.64 73.0163 83.7467 73.0163 83.84V86.26H77.5763V83.84C77.5763 83.7467 77.5629 83.64 77.5363 83.52C77.5096 83.4 77.4696 83.2867 77.4163 83.18C77.3763 83.0733 77.3163 82.9867 77.2363 82.92C77.1696 82.84 77.0829 82.8 76.9763 82.8V82.6H79.4963V82.8C79.3896 82.8 79.2963 82.84 79.2163 82.92C79.1496 82.9867 79.0896 83.0733 79.0363 83.18C78.9829 83.2867 78.9429 83.4 78.9163 83.52C78.9029 83.64 78.8963 83.7467 78.8963 83.84V89.7C78.8963 89.8067 78.9096 89.9267 78.9363 90.06C78.9629 90.18 79.0029 90.2933 79.0563 90.4C79.1096 90.5067 79.1696 90.6 79.2363 90.68C79.3163 90.76 79.4029 90.8 79.4963 90.8V91H76.9763V90.8C77.0696 90.8 77.1496 90.7667 77.2163 90.7C77.2963 90.62 77.3629 90.5267 77.4163 90.42C77.4696 90.3 77.5096 90.18 77.5363 90.06C77.5629 89.9267 77.5763 89.8067 77.5763 89.7V86.92H73.0163V89.7ZM88.4473 86.24C89.0607 86.24 89.594 86.3 90.0473 86.42C90.514 86.54 90.894 86.7067 91.1873 86.92C91.494 87.1333 91.7207 87.3867 91.8673 87.68C92.014 87.96 92.0873 88.2667 92.0873 88.6C92.0873 88.9333 92.014 89.2467 91.8673 89.54C91.7207 89.8333 91.4873 90.0867 91.1673 90.3C90.8607 90.5133 90.474 90.6867 90.0073 90.82C89.5407 90.94 88.9873 91 88.3473 91H84.9273V90.8C85.034 90.8 85.1273 90.7667 85.2073 90.7C85.2873 90.62 85.354 90.5267 85.4073 90.42C85.474 90.3 85.5207 90.18 85.5473 90.06C85.574 89.9267 85.5873 89.8067 85.5873 89.7V83.84C85.5873 83.7467 85.574 83.64 85.5473 83.52C85.5207 83.4 85.474 83.2867 85.4073 83.18C85.354 83.0733 85.2873 82.9867 85.2073 82.92C85.1273 82.84 85.034 82.8 84.9273 82.8V82.6H87.5473V82.8C87.3473 82.8 87.1873 82.9267 87.0673 83.18C86.9473 83.42 86.8873 83.64 86.8873 83.84V86.24H88.4473ZM88.3073 90.34C89.1873 90.34 89.8207 90.2 90.2073 89.92C90.6073 89.6267 90.8073 89.2667 90.8073 88.84C90.8073 88.6 90.754 88.3667 90.6473 88.14C90.5407 87.9 90.374 87.6933 90.1473 87.52C89.934 87.3333 89.6673 87.1867 89.3473 87.08C89.0273 86.96 88.6607 86.9 88.2473 86.9H86.8873V90.34H88.3073ZM103.394 89.44C103.474 89.5867 103.58 89.74 103.714 89.9C103.847 90.06 103.994 90.2067 104.154 90.34C104.327 90.4733 104.5 90.5867 104.674 90.68C104.847 90.76 105.014 90.8 105.174 90.8V91H104.414C103.8 91 103.327 90.8733 102.994 90.62C102.66 90.3667 102.4 90.0667 102.214 89.72L101.274 87.94C101.127 87.66 100.88 87.42 100.534 87.22C100.187 87.0067 99.8203 86.9 99.4336 86.9V89.74C99.4336 89.8467 99.4403 89.96 99.4536 90.08C99.4803 90.2 99.5203 90.3133 99.5736 90.42C99.6269 90.5267 99.6936 90.62 99.7736 90.7C99.8536 90.7667 99.9469 90.8 100.054 90.8V91H97.4736V90.8C97.5669 90.8 97.6536 90.7667 97.7336 90.7C97.8269 90.62 97.9003 90.5267 97.9536 90.42C98.0069 90.3133 98.0469 90.2 98.0736 90.08C98.1003 89.96 98.1136 89.8467 98.1136 89.74V83.86C98.1136 83.7667 98.1003 83.66 98.0736 83.54C98.0469 83.4067 98.0069 83.2867 97.9536 83.18C97.9136 83.0733 97.8536 82.9867 97.7736 82.92C97.6936 82.84 97.5936 82.8 97.4736 82.8V82.6H100.034V82.8C99.9403 82.8 99.8536 82.84 99.7736 82.92C99.7069 82.9867 99.6469 83.0733 99.5936 83.18C99.5403 83.2867 99.5003 83.4067 99.4736 83.54C99.4469 83.66 99.4336 83.7667 99.4336 83.86V85.92C100.007 85.4133 100.574 84.9267 101.134 84.46C101.694 83.98 102.26 83.4867 102.834 82.98C102.834 82.9667 102.84 82.9533 102.854 82.94C102.867 82.9267 102.874 82.9133 102.874 82.9C102.874 82.8333 102.84 82.8 102.774 82.8V82.6H104.514V82.8C104.447 82.8 104.367 82.82 104.274 82.86C104.18 82.9 104.087 82.9467 103.994 83C103.887 83.0533 103.78 83.12 103.674 83.2C103.074 83.7067 102.474 84.2267 101.874 84.76C101.274 85.28 100.674 85.7933 100.074 86.3C100.647 86.3 101.114 86.4067 101.474 86.62C101.847 86.8333 102.16 87.1733 102.414 87.64L103.394 89.44ZM117.877 89.7C117.877 89.8067 117.89 89.9267 117.917 90.06C117.957 90.18 118.004 90.2933 118.057 90.4C118.11 90.5067 118.177 90.6 118.257 90.68C118.35 90.76 118.437 90.8 118.517 90.8V91H115.957V90.8C116.05 90.8 116.137 90.7667 116.217 90.7C116.297 90.62 116.364 90.5267 116.417 90.42C116.47 90.3 116.51 90.18 116.537 90.06C116.564 89.9267 116.577 89.8067 116.577 89.7V84.9L111.817 89.56V89.7C111.817 89.8067 111.83 89.9267 111.857 90.06C111.884 90.18 111.924 90.2933 111.977 90.4C112.03 90.5067 112.09 90.6 112.157 90.68C112.237 90.76 112.324 90.8 112.417 90.8V91H109.877V90.8C109.97 90.8 110.057 90.7667 110.137 90.7C110.217 90.62 110.284 90.5267 110.337 90.42C110.39 90.3 110.43 90.18 110.457 90.06C110.484 89.9267 110.497 89.8067 110.497 89.7V83.84C110.497 83.7467 110.484 83.64 110.457 83.52C110.43 83.4 110.39 83.2867 110.337 83.18C110.284 83.0733 110.217 82.9867 110.137 82.92C110.057 82.84 109.97 82.8 109.877 82.8V82.6H112.417V82.8C112.31 82.8 112.217 82.84 112.137 82.92C112.07 82.9867 112.01 83.0733 111.957 83.18C111.917 83.2867 111.884 83.4 111.857 83.52C111.83 83.64 111.817 83.7467 111.817 83.84V88.62L116.577 83.96V83.84C116.577 83.7467 116.564 83.64 116.537 83.52C116.51 83.4 116.47 83.2867 116.417 83.18C116.364 83.0733 116.297 82.9867 116.217 82.92C116.137 82.84 116.05 82.8 115.957 82.8V82.6H118.517V82.8C118.41 82.8 118.31 82.84 118.217 82.92C118.137 82.9867 118.07 83.0733 118.017 83.18C117.977 83.2867 117.944 83.4 117.917 83.52C117.89 83.64 117.877 83.7467 117.877 83.84V89.7ZM131.963 89.7C131.963 89.8067 131.976 89.9267 132.003 90.06C132.043 90.18 132.09 90.2933 132.143 90.4C132.196 90.5067 132.263 90.6 132.343 90.68C132.436 90.76 132.523 90.8 132.603 90.8V91H130.043V90.8C130.136 90.8 130.223 90.7667 130.303 90.7C130.383 90.62 130.45 90.5267 130.503 90.42C130.556 90.3 130.596 90.18 130.623 90.06C130.65 89.9267 130.663 89.8067 130.663 89.7V84.9L125.903 89.56V89.7C125.903 89.8067 125.916 89.9267 125.943 90.06C125.97 90.18 126.01 90.2933 126.063 90.4C126.116 90.5067 126.176 90.6 126.243 90.68C126.323 90.76 126.41 90.8 126.503 90.8V91H123.963V90.8C124.056 90.8 124.143 90.7667 124.223 90.7C124.303 90.62 124.37 90.5267 124.423 90.42C124.476 90.3 124.516 90.18 124.543 90.06C124.57 89.9267 124.583 89.8067 124.583 89.7V83.84C124.583 83.7467 124.57 83.64 124.543 83.52C124.516 83.4 124.476 83.2867 124.423 83.18C124.37 83.0733 124.303 82.9867 124.223 82.92C124.143 82.84 124.056 82.8 123.963 82.8V82.6H126.503V82.8C126.396 82.8 126.303 82.84 126.223 82.92C126.156 82.9867 126.096 83.0733 126.043 83.18C126.003 83.2867 125.97 83.4 125.943 83.52C125.916 83.64 125.903 83.7467 125.903 83.84V88.62L130.663 83.96V83.84C130.663 83.7467 130.65 83.64 130.623 83.52C130.596 83.4 130.556 83.2867 130.503 83.18C130.45 83.0733 130.383 82.9867 130.303 82.92C130.223 82.84 130.136 82.8 130.043 82.8V82.6H132.603V82.8C132.496 82.8 132.396 82.84 132.303 82.92C132.223 82.9867 132.156 83.0733 132.103 83.18C132.063 83.2867 132.03 83.4 132.003 83.52C131.976 83.64 131.963 83.7467 131.963 83.84V89.7ZM130.423 79.9C130.423 80.1133 130.37 80.3467 130.263 80.6C130.156 80.84 130.003 81.0667 129.803 81.28C129.603 81.48 129.363 81.6467 129.083 81.78C128.816 81.9133 128.516 81.98 128.183 81.98C127.876 81.98 127.583 81.92 127.303 81.8C127.036 81.6667 126.803 81.5 126.603 81.3C126.403 81.1 126.243 80.88 126.123 80.64C126.003 80.3867 125.943 80.14 125.943 79.9H126.063C126.076 79.98 126.116 80.0933 126.183 80.24C126.263 80.3733 126.383 80.5133 126.543 80.66C126.703 80.8067 126.91 80.9333 127.163 81.04C127.43 81.1467 127.763 81.2 128.163 81.2C128.576 81.2 128.916 81.1467 129.183 81.04C129.45 80.9333 129.663 80.8067 129.823 80.66C129.983 80.5133 130.096 80.3733 130.163 80.24C130.23 80.0933 130.276 79.98 130.303 79.9H130.423ZM154.104 90.28C153.998 90.28 153.898 90.3067 153.804 90.36C153.711 90.4 153.604 90.4533 153.484 90.52C153.258 90.6533 152.958 90.7933 152.584 90.94C152.211 91.0733 151.744 91.14 151.184 91.14C150.504 91.14 149.878 91.0333 149.304 90.82C148.744 90.5933 148.258 90.2867 147.844 89.9C147.431 89.5 147.111 89.04 146.884 88.52C146.658 87.9867 146.544 87.4133 146.544 86.8C146.544 86.2267 146.644 85.68 146.844 85.16C147.058 84.64 147.358 84.18 147.744 83.78C148.131 83.38 148.604 83.06 149.164 82.82C149.738 82.58 150.384 82.46 151.104 82.46C151.598 82.46 151.998 82.52 152.304 82.64C152.611 82.7467 152.871 82.8533 153.084 82.96C153.204 83.0267 153.318 83.08 153.424 83.12C153.544 83.16 153.664 83.18 153.784 83.18V84.7H153.584C153.518 84.4467 153.398 84.2267 153.224 84.04C153.051 83.84 152.851 83.6733 152.624 83.54C152.398 83.4067 152.151 83.3067 151.884 83.24C151.618 83.1733 151.358 83.14 151.104 83.14C150.558 83.14 150.078 83.24 149.664 83.44C149.251 83.6267 148.911 83.88 148.644 84.2C148.378 84.5067 148.178 84.86 148.044 85.26C147.911 85.66 147.844 86.0733 147.844 86.5C147.844 86.9933 147.918 87.48 148.064 87.96C148.224 88.4267 148.444 88.8467 148.724 89.22C149.018 89.5933 149.371 89.8933 149.784 90.12C150.211 90.3467 150.691 90.46 151.224 90.46C151.598 90.46 151.944 90.4067 152.264 90.3C152.584 90.1933 152.858 90.0533 153.084 89.88C153.324 89.7067 153.511 89.52 153.644 89.32C153.791 89.1067 153.878 88.9067 153.904 88.72H154.104V90.28ZM164.215 91V89.98L164.115 90.08C163.782 90.4133 163.395 90.6733 162.955 90.86C162.528 91.0467 162.008 91.14 161.395 91.14C160.928 91.14 160.528 91.0867 160.195 90.98C159.862 90.8733 159.588 90.7267 159.375 90.54C159.162 90.34 159.002 90.1133 158.895 89.86C158.802 89.6067 158.755 89.34 158.755 89.06C158.755 88.6067 158.875 88.2067 159.115 87.86C159.368 87.5133 159.728 87.2067 160.195 86.94C160.662 86.6733 161.228 86.4333 161.895 86.22C162.575 85.9933 163.348 85.7733 164.215 85.56C164.188 85.04 164.082 84.62 163.895 84.3C163.708 83.98 163.488 83.7333 163.235 83.56C162.982 83.3733 162.715 83.2533 162.435 83.2C162.155 83.1333 161.915 83.1 161.715 83.1C161.368 83.1 161.062 83.1533 160.795 83.26C160.528 83.3533 160.295 83.4867 160.095 83.66C159.895 83.82 159.728 84.0067 159.595 84.22C159.475 84.4333 159.382 84.6467 159.315 84.86H159.135V83.3C159.255 83.3 159.395 83.26 159.555 83.18C159.715 83.0867 159.902 82.9867 160.115 82.88C160.342 82.7733 160.608 82.68 160.915 82.6C161.235 82.5067 161.615 82.46 162.055 82.46C162.788 82.46 163.382 82.5533 163.835 82.74C164.288 82.9267 164.635 83.1733 164.875 83.48C165.128 83.7867 165.295 84.14 165.375 84.54C165.455 84.9267 165.495 85.3267 165.495 85.74V89.7C165.495 89.9667 165.562 90.22 165.695 90.46C165.828 90.6867 166.008 90.8 166.235 90.8V91H164.215ZM164.215 89.1V86.24L164.015 86.28C163.695 86.36 163.302 86.4667 162.835 86.6C162.382 86.7333 161.948 86.9067 161.535 87.12C161.122 87.3333 160.768 87.5867 160.475 87.88C160.182 88.1733 160.035 88.5133 160.035 88.9C160.035 89.3267 160.208 89.68 160.555 89.96C160.902 90.24 161.355 90.38 161.915 90.38C162.355 90.38 162.742 90.2867 163.075 90.1C163.408 89.9 163.715 89.6467 163.995 89.34L164.215 89.1ZM177.576 90.8C177.669 90.8 177.776 90.76 177.896 90.68C178.016 90.6 178.076 90.4867 178.076 90.34C178.076 90.3133 178.062 90.26 178.036 90.18C178.022 90.0867 177.989 89.9867 177.936 89.88L175.396 83.88L172.756 90.18C172.529 90.7267 172.082 91 171.416 91H170.976V90.8C171.162 90.8 171.362 90.7067 171.576 90.52C171.802 90.32 171.982 90.0867 172.116 89.82L174.836 83.46C174.902 83.2867 174.936 83.1467 174.936 83.04C174.936 82.88 174.829 82.8 174.616 82.8V82.6H176.236L179.316 89.8C179.409 90 179.542 90.22 179.716 90.46C179.902 90.6867 180.076 90.8 180.236 90.8V91H177.576V90.8ZM190.219 91V89.98L190.119 90.08C189.786 90.4133 189.399 90.6733 188.959 90.86C188.532 91.0467 188.012 91.14 187.399 91.14C186.932 91.14 186.532 91.0867 186.199 90.98C185.866 90.8733 185.592 90.7267 185.379 90.54C185.166 90.34 185.006 90.1133 184.899 89.86C184.806 89.6067 184.759 89.34 184.759 89.06C184.759 88.6067 184.879 88.2067 185.119 87.86C185.372 87.5133 185.732 87.2067 186.199 86.94C186.666 86.6733 187.232 86.4333 187.899 86.22C188.579 85.9933 189.352 85.7733 190.219 85.56C190.192 85.04 190.086 84.62 189.899 84.3C189.712 83.98 189.492 83.7333 189.239 83.56C188.986 83.3733 188.719 83.2533 188.439 83.2C188.159 83.1333 187.919 83.1 187.719 83.1C187.372 83.1 187.066 83.1533 186.799 83.26C186.532 83.3533 186.299 83.4867 186.099 83.66C185.899 83.82 185.732 84.0067 185.599 84.22C185.479 84.4333 185.386 84.6467 185.319 84.86H185.139V83.3C185.259 83.3 185.399 83.26 185.559 83.18C185.719 83.0867 185.906 82.9867 186.119 82.88C186.346 82.7733 186.612 82.68 186.919 82.6C187.239 82.5067 187.619 82.46 188.059 82.46C188.792 82.46 189.386 82.5533 189.839 82.74C190.292 82.9267 190.639 83.1733 190.879 83.48C191.132 83.7867 191.299 84.14 191.379 84.54C191.459 84.9267 191.499 85.3267 191.499 85.74V89.7C191.499 89.9667 191.566 90.22 191.699 90.46C191.832 90.6867 192.012 90.8 192.239 90.8V91H190.219ZM190.219 89.1V86.24L190.019 86.28C189.699 86.36 189.306 86.4667 188.839 86.6C188.386 86.7333 187.952 86.9067 187.539 87.12C187.126 87.3333 186.772 87.5867 186.479 87.88C186.186 88.1733 186.039 88.5133 186.039 88.9C186.039 89.3267 186.212 89.68 186.559 89.96C186.906 90.24 187.359 90.38 187.919 90.38C188.359 90.38 188.746 90.2867 189.079 90.1C189.412 89.9 189.719 89.6467 189.999 89.34L190.219 89.1ZM204.34 84.7C204.34 84.5533 204.313 84.3933 204.26 84.22C204.206 84.0467 204.126 83.8933 204.02 83.76C203.913 83.6133 203.78 83.4933 203.62 83.4C203.46 83.3067 203.273 83.26 203.06 83.26H201.3V89.7C201.3 89.8067 201.313 89.92 201.34 90.04C201.366 90.16 201.406 90.28 201.46 90.4C201.526 90.5067 201.593 90.6 201.66 90.68C201.74 90.76 201.833 90.8 201.94 90.8V91H199.34V90.8C199.446 90.8 199.54 90.76 199.62 90.68C199.7 90.6 199.766 90.5067 199.82 90.4C199.886 90.2933 199.933 90.18 199.96 90.06C199.986 89.9267 200 89.8067 200 89.7V83.26H198.28C198.066 83.26 197.88 83.3067 197.72 83.4C197.56 83.4933 197.426 83.6133 197.32 83.76C197.226 83.8933 197.153 84.0467 197.1 84.22C197.046 84.3933 197.02 84.5533 197.02 84.7H196.82V82.6H204.52V84.7H204.34ZM11.66 114.8H11.76C11.8533 114.8 11.94 114.76 12.02 114.68C12.1 114.6 12.1667 114.507 12.22 114.4C12.2867 114.293 12.3333 114.18 12.36 114.06C12.3867 113.927 12.4 113.807 12.4 113.7V103.18L7.24 115.22L2.34 103.8V113.7C2.34 113.807 2.35333 113.927 2.38 114.06C2.40667 114.18 2.44667 114.293 2.5 114.4C2.56667 114.507 2.64 114.6 2.72 114.68C2.8 114.76 2.89333 114.8 3 114.8H3.1V115H0.92V114.8H1.02C1.11333 114.8 1.2 114.76 1.28 114.68C1.36 114.6 1.42667 114.507 1.48 114.4C1.53333 114.293 1.57333 114.18 1.6 114.06C1.62667 113.927 1.64 113.807 1.64 113.7V103.04C1.64 102.947 1.62667 102.84 1.6 102.72C1.57333 102.6 1.53333 102.487 1.48 102.38C1.42667 102.273 1.36 102.187 1.28 102.12C1.2 102.04 1.11333 102 1.02 102H0.92V101.8H2.96L7.6 112.74L12.24 101.8H14.5V102H14.4C14.2933 102 14.2 102.04 14.12 102.12C14.04 102.187 13.9667 102.273 13.9 102.38C13.8467 102.487 13.8067 102.6 13.78 102.72C13.7533 102.84 13.74 102.947 13.74 103.04V113.7C13.74 113.807 13.7533 113.927 13.78 114.06C13.8067 114.18 13.8467 114.293 13.9 114.4C13.9667 114.507 14.04 114.6 14.12 114.68C14.2 114.76 14.2933 114.8 14.4 114.8H14.5V115H11.66V114.8ZM29.1069 113.7C29.1069 113.807 29.1202 113.927 29.1469 114.06C29.1735 114.18 29.2135 114.293 29.2669 114.4C29.3335 114.507 29.4069 114.6 29.4869 114.68C29.5669 114.76 29.6602 114.8 29.7669 114.8V115H27.1669V114.8C27.2735 114.8 27.3669 114.767 27.4469 114.7C27.5269 114.62 27.5935 114.527 27.6469 114.42C27.7002 114.3 27.7402 114.18 27.7669 114.06C27.7935 113.927 27.8069 113.807 27.8069 113.7V108.3L24.4669 115.18L21.2669 108.7V113.7C21.2669 113.807 21.2802 113.927 21.3069 114.06C21.3335 114.18 21.3735 114.293 21.4269 114.4C21.4802 114.507 21.5469 114.6 21.6269 114.68C21.7069 114.76 21.8002 114.8 21.9069 114.8V115H19.9669V114.8C20.0735 114.8 20.1669 114.76 20.2469 114.68C20.3269 114.6 20.3869 114.507 20.4269 114.4C20.4802 114.293 20.5202 114.18 20.5469 114.06C20.5735 113.927 20.5869 113.807 20.5869 113.7V107.84C20.5869 107.6 20.5535 107.367 20.4869 107.14C20.4335 106.913 20.2602 106.8 19.9669 106.8V106.6H21.7469L24.8069 112.86L27.8669 106.6H29.7669V106.8C29.5669 106.8 29.4069 106.927 29.2869 107.18C29.1669 107.42 29.1069 107.64 29.1069 107.84V113.7ZM44.3842 113.7C44.3842 113.807 44.3976 113.927 44.4242 114.06C44.4509 114.18 44.4909 114.293 44.5442 114.4C44.6109 114.507 44.6842 114.6 44.7642 114.68C44.8442 114.76 44.9376 114.8 45.0442 114.8V115H42.4442V114.8C42.5509 114.8 42.6442 114.767 42.7242 114.7C42.8042 114.62 42.8709 114.527 42.9242 114.42C42.9776 114.3 43.0176 114.18 43.0442 114.06C43.0709 113.927 43.0842 113.807 43.0842 113.7V108.3L39.7442 115.18L36.5442 108.7V113.7C36.5442 113.807 36.5576 113.927 36.5842 114.06C36.6109 114.18 36.6509 114.293 36.7042 114.4C36.7576 114.507 36.8242 114.6 36.9042 114.68C36.9842 114.76 37.0776 114.8 37.1842 114.8V115H35.2442V114.8C35.3509 114.8 35.4442 114.76 35.5242 114.68C35.6042 114.6 35.6642 114.507 35.7042 114.4C35.7576 114.293 35.7976 114.18 35.8242 114.06C35.8509 113.927 35.8642 113.807 35.8642 113.7V107.84C35.8642 107.6 35.8309 107.367 35.7642 107.14C35.7109 106.913 35.5376 106.8 35.2442 106.8V106.6H37.0242L40.0842 112.86L43.1442 106.6H45.0442V106.8C44.8442 106.8 44.6842 106.927 44.5642 107.18C44.4442 107.42 44.3842 107.64 44.3842 107.84V113.7ZM50.6416 114.14C50.6416 113.873 50.7282 113.647 50.9016 113.46C51.0882 113.273 51.3149 113.18 51.5816 113.18C51.8482 113.18 52.0749 113.273 52.2616 113.46C52.4482 113.647 52.5416 113.873 52.5416 114.14C52.5416 114.407 52.4482 114.633 52.2616 114.82C52.0749 114.993 51.8482 115.08 51.5816 115.08C51.3149 115.08 51.0882 114.993 50.9016 114.82C50.7282 114.633 50.6416 114.407 50.6416 114.14ZM58.165 114.14C58.165 113.873 58.2517 113.647 58.425 113.46C58.6117 113.273 58.8383 113.18 59.105 113.18C59.3717 113.18 59.5983 113.273 59.785 113.46C59.9717 113.647 60.065 113.873 60.065 114.14C60.065 114.407 59.9717 114.633 59.785 114.82C59.5983 114.993 59.3717 115.08 59.105 115.08C58.8383 115.08 58.6117 114.993 58.425 114.82C58.2517 114.633 58.165 114.407 58.165 114.14ZM65.6884 114.14C65.6884 113.873 65.7751 113.647 65.9484 113.46C66.1351 113.273 66.3618 113.18 66.6284 113.18C66.8951 113.18 67.1218 113.273 67.3084 113.46C67.4951 113.647 67.5884 113.873 67.5884 114.14C67.5884 114.407 67.4951 114.633 67.3084 114.82C67.1218 114.993 66.8951 115.08 66.6284 115.08C66.3618 115.08 66.1351 114.993 65.9484 114.82C65.7751 114.633 65.6884 114.407 65.6884 114.14Z" fill="#313030"/>
<path d="M73.7796 6.96118C73.5428 7.10323 73.466 7.41035 73.6081 7.64716L75.9229 11.5061C76.0649 11.7429 76.372 11.8198 76.6088 11.6777C76.8457 11.5357 76.9225 11.2285 76.7804 10.9917L74.7228 7.56153L78.153 5.50392C78.3898 5.36188 78.4666 5.05475 78.3246 4.81795C78.1825 4.58115 77.8754 4.50433 77.6386 4.64638L73.7796 6.96118ZM100.766 69.8989C101.222 70.1048 101.222 70.1045 101.222 70.1042C101.222 70.104 101.222 70.1037 101.222 70.1033C101.223 70.1025 101.223 70.1014 101.224 70.1C101.225 70.0972 101.227 70.0932 101.229 70.0881C101.234 70.0778 101.24 70.0629 101.249 70.0433C101.266 70.0042 101.291 69.9466 101.323 69.8712C101.387 69.7203 101.48 69.4981 101.594 69.2094C101.823 68.632 102.141 67.7885 102.497 66.7179C103.211 64.5771 104.082 61.5258 104.716 57.8774C105.983 50.5858 106.308 40.8758 102.494 31.2807L101.564 31.6501C105.286 41.014 104.979 50.5208 103.731 57.7062C103.107 61.2963 102.25 64.2985 101.549 66.4017C101.198 67.4531 100.887 68.2791 100.664 68.8407C100.553 69.1216 100.464 69.3363 100.403 69.4799C100.372 69.5518 100.349 69.6059 100.333 69.6416C100.325 69.6594 100.319 69.6727 100.315 69.6813C100.314 69.6856 100.312 69.6887 100.311 69.6907C100.311 69.6917 100.311 69.6924 100.31 69.6927C100.31 69.6929 100.31 69.693 100.31 69.6931C100.31 69.6931 100.31 69.693 100.766 69.8989ZM102.494 31.2807C98.6721 21.6669 91.5791 15.5738 85.4649 11.8898C82.4064 10.0469 79.5861 8.80257 77.5289 8.01842C76.5001 7.62623 75.6612 7.34882 75.0778 7.16901C74.7861 7.0791 74.5581 7.01357 74.4022 6.97026C74.3242 6.94861 74.2642 6.93252 74.2232 6.92171C74.2026 6.91631 74.1869 6.91223 74.176 6.90944C74.1706 6.90805 74.1664 6.90697 74.1634 6.90621C74.1619 6.90584 74.1607 6.90554 74.1598 6.90532C74.1594 6.90521 74.159 6.9051 74.1588 6.90505C74.1584 6.90497 74.1582 6.9049 74.0368 7.38995C73.9155 7.87502 73.9154 7.87499 73.9154 7.87498C73.9155 7.875 73.9155 7.87501 73.9157 7.87506C73.9161 7.87516 73.9168 7.87533 73.9178 7.87558C73.9197 7.87608 73.9229 7.87689 73.9274 7.87803C73.9362 7.88031 73.9499 7.88385 73.9684 7.88871C74.0052 7.89842 74.061 7.91337 74.1347 7.93383C74.282 7.97473 74.5009 8.03763 74.7833 8.12465C75.348 8.2987 76.1661 8.56913 77.1727 8.95283C79.1866 9.72048 81.9513 10.9402 84.9488 12.7463C90.9466 16.3602 97.8496 22.3049 101.564 31.6501L102.494 31.2807Z" fill="#313030"/>
</svg>
